<?xml version="1.0" encoding="utf-8"?>
<!-- Generator: Adobe Illustrator 25.0.1, SVG Export Plug-In . SVG Version: 6.00 Build 0)  -->
<svg version="1.1" id="Layer_1" xmlns="http://www.w3.org/2000/svg" xmlns:xlink="http://www.w3.org/1999/xlink" x="0px" y="0px"
	 viewBox="0 0 1643.38 297.21" style="enable-background:new 0 0 1643.38 297.21;" xml:space="preserve">
<g id="logo_00000168806103161326494590000004680828064771564951_">
	<g>
		<polygon points="31.91,65.87 0,65.87 0,252.39 112.16,252.39 112.16,223.77 31.91,223.77 		"/>
		<path d="M286.2,176.4c0,29.61-16.44,49.34-46.41,49.34c-29.97,0-46.41-18.75-46.41-48.36V65.87h-31.91v112.51
			c0,46.38,26.11,76.98,78.32,75.99c52.21,0,78.32-30.59,78.32-76.98V64.88H286.2V176.4z"/>
		<polygon points="539.53,64.88 500.85,64.88 454.44,132.98 407.06,64.88 368.39,64.88 433.17,155.68 365.49,251.41 404.16,251.41 
			455.41,178.38 506.65,251.41 544.36,251.41 476.68,155.68 		"/>
		<polygon points="592.71,251.41 717.44,250.42 717.44,221.8 624.61,221.8 624.61,170.48 715.5,170.48 715.5,141.86 624.61,141.86 
			624.61,93.5 717.44,93.5 717.44,64.88 592.71,64.88 		"/>
		<path d="M1068.42,151.73c-32.87-17.76-62.85-21.71-64.78-22.7c4.83-1.97,86.05-36.51,89.92-60.2
			c3.87-24.67-48.35-34.54-87.99-35.53c-9.67,0-21.27,0-34.81,0.99c4.83-6.91,8.7-10.86,10.64-13.82c8.7-11.84,4.83-26.65-5.8-17.76
			c-4.83,1.97-13.54,14.8-25.14,32.57c-40.61,2.96-86.06,6.91-104.43,11.84c-13.54,3.95-8.7,23.69,0.97,18.75
			c15.47-6.91,53.18-12.83,92.82-15.79c-18.37,28.62-40.61,65.13-56.08,86.85c-28.04,42.44-66.72,107.57-77.35,134.22
			c-12.57,27.63,7.73,29.61,10.64,22.7c3.87-4.93,17.4-33.55,19.34-40.46c1.93-4.93-2.9-6.91-2.9-6.91s27.07-48.36,63.82-103.62
			c3.87-4.93,6.77-9.87,9.67-14.8c0,3.95,2.9,6.91,7.74,6.91c7.73,0,47.38-1.97,102.49,10.86c35.78,9.87,86.05,35.53,78.32,53.29
			c-4.83,12.83-31.91,34.54-81.22,50.33c-53.18,17.76-97.66,22.7-100.56,19.74c-2.9-4.93,11.6-11.84,9.67-14.8
			c0-4.93-6.77-2.96-22.24,8.88c-15.47,10.86-3.87,25.66,11.6,23.69c15.47-1.97,53.18-9.87,92.82-21.71
			c39.64-11.84,88.95-33.55,103.46-60.2C1120.63,187.26,1095.49,166.53,1068.42,151.73z M917.58,119.16c-2.9,0-3.87,0.99-4.83,1.97
			c17.41-28.62,36.74-54.28,49.31-73.03c9.67-0.99,18.37-0.99,26.11-0.99c19.34,0,38.68,0.99,54.15,3.95
			c26.1,4.93,35.78,9.87,35.78,15.79c0,3.95-3.87,7.9-9.67,12.83c-25.14,19.74-72.51,39.48-91.85,42.44
			C950.46,119.16,929.19,118.18,917.58,119.16z"/>
		<path d="M1172.84,146.8c6.77,1.97,11.6-1.97,14.5-4.93c4.83-4.93,2.9-10.86-2.9-15.79c-6.77-2.96-14.51,1.97-14.51,6.91
			C1168.98,136.93,1167.04,145.81,1172.84,146.8z"/>
		<path d="M1542.2,83.63c-12.57,5.92-34.81,9.87-34.81,9.87s19.34-38.49,22.24-49.34c2.9-15.79-8.7-13.82-14.5,2.96
			c-1.93,4.93-23.2,47.37-23.2,47.37s-24.18,4.93-45.44-4.93c-5.8-1.97-16.44,3.95-9.67,7.9c23.2,13.82,50.28,7.9,50.28,7.9
			s-17.41,36.52-20.3,45.4c-5.8,14.79-11.25,26.75-15.73,36.93c-14.45,14.75-57.89,43.12-77.1,44.98c-7.74,0-17.41,1.97-17.41-12.83
			c1.94-13.82,4.83-14.8,6.77-19.74c4.83,4.93,21.27,1.97,32.87-4.93c19.34-11.84,34.81-43.42,19.34-49.34
			c-9.67-2.96-21.27-1.97-36.74,11.84c-8.97,8.19-16.55,17.32-22.3,27.39c-1.81,0.12-4.21,1.67-6.71,5.18
			c-12.57,18.75-57.05,50.33-60.91,34.54c-1.93-10.86-1.93-25.66,1.94-45.4c15.47-18.75,31.91-40.46,46.41-62.17
			c25.14-35.53,37.71-78.95,37.71-93.76c0-7.9-4.83-16.78-13.54-16.78c-3.87,0-8.7,0.99-14.5,6.91
			c-17.41,15.79-41.58,72.04-49.31,97.7c-5.8,16.78-13.54,42.44-17.41,65.14c-9.67,9.87-19.34,19.74-26.11,27.63
			c-21.27,22.7-45.44,35.53-49.31,33.55c-6.77-3.95,0.97-30.59,23.2-49.34c25.14-21.71,38.68-25.66,43.51-26.65
			c5.8-1.97,9.67-13.82-4.83-14.8c-12.57,0-28.04,9.87-43.51,25.66c-7.15,7.3-12.77,14.24-17.18,20.72
			c-14.79,12.08-42.16,34.63-67.91,35.53c-14.5,0,11.6-38.49,19.34-49.34c6.77-8.88-1.94-11.84-5.8-11.84
			c-6.77,0-29.97,40.46-29.97,57.24c0,12.83,4.83,18.75,20.3,15.79c20.21-2.95,38.01-12.94,51.95-23.45
			c-1.58,4.88-2.36,9.12-2.64,12.59c-1.93,13.82,2.9,25.66,24.18,16.78c18.37-7.9,29.01-18.75,46.41-36.52
			c4.83-3.95,9.67-8.88,14.5-14.8c-0.97,5.92-1.94,11.84-0.97,16.78c0.97,24.67,10.64,32.57,25.14,27.63
			c16.72-5.19,35.64-20.99,46.86-32.29c-1.07,4.06-1.88,8.25-2.39,12.55c-1.93,21.71,19.34,28.62,35.78,23.69
			c18.55-4.06,44.35-20.15,61.87-34.65c-5.7,17.65-4.02,33.56,29.02,31.69c38.67-1.97,63.81-39.48,63.81-48.36
			c0-7.9-0.97-17.76-6.77-11.84c-6.77,6.91-16.44,34.54-41.58,43.42c-21.27,6.91-38.68,1.97-20.3-38.49l37.71-80.93
			c0,0,32.88-0.99,43.51-5.92C1559.6,93.5,1552.83,79.69,1542.2,83.63z M1382.66,170.48c8.7-8.88,24.17-18.75,27.07-14.8
			c3.87,5.92-7.74,19.74-18.37,27.63c-8.7,5.92-17.4,6.91-20.3,1.97C1375.89,177.39,1376.86,175.42,1382.66,170.48z M1303.37,129.03
			c13.54-45.4,44.48-109.55,58.98-109.55c6.77,0-1.94,34.54-26.11,77.96c-13.54,23.69-28.04,44.41-40.61,60.2
			C1297.57,148.77,1300.47,139.89,1303.37,129.03z"/>
	</g>
	<path d="M1619.18,47.95c4.67,0,8.8,1.06,12.41,3.19c3.68,2.13,6.55,5.08,8.6,8.84c2.13,3.77,3.19,7.98,3.19,12.65
		c0,4.67-1.06,8.88-3.19,12.65c-2.05,3.68-4.92,6.59-8.6,8.72c-3.61,2.13-7.74,3.19-12.41,3.19c-4.66,0-8.84-1.06-12.53-3.19
		c-3.69-2.13-6.59-5.04-8.72-8.72c-2.04-3.77-3.07-7.98-3.07-12.65c0-4.67,1.02-8.88,3.07-12.65c2.13-3.77,5.04-6.71,8.72-8.84
		S1614.51,47.95,1619.18,47.95z M1619.18,93.15c5.9,0,10.65-1.92,14.25-5.77c3.69-3.85,5.53-8.76,5.53-14.74
		c0-5.98-1.84-10.89-5.53-14.74c-3.6-3.85-8.35-5.77-14.25-5.77c-5.98,0-10.81,1.92-14.49,5.77c-3.61,3.85-5.4,8.76-5.4,14.74
		c0,5.98,1.8,10.89,5.4,14.74C1608.37,91.23,1613.2,93.15,1619.18,93.15z M1629.86,67.23c0,2.05-0.57,3.77-1.72,5.16
		c-1.15,1.31-2.75,2.17-4.79,2.58l7.37,10.56l-6.26,0.12l-6.75-10.44h-2.83v10.44h-5.28V59.25h11.42c2.7,0,4.83,0.74,6.39,2.21
		C1629.04,62.85,1629.86,64.78,1629.86,67.23z M1614.88,70.79h5.78c1.14,0,2.08-0.29,2.82-0.86c0.74-0.57,1.1-1.43,1.1-2.58
		s-0.37-1.97-1.1-2.46c-0.74-0.57-1.68-0.86-2.82-0.86h-5.78V70.79z"/>
</g>
</svg>
