<?xml version="1.0" encoding="UTF-8"?><svg id="Layer_1" xmlns="http://www.w3.org/2000/svg" viewBox="0 0 4886.99 794.72"><defs><style>.cls-1{fill:#231f20;}.cls-1,.cls-2{stroke-width:0px;}.cls-2{fill-rule:evenodd;}</style></defs><path class="cls-2" d="M133,157v465h147V157h-30v433h-86V125H33v-24H0v56h133ZM191,125h205V43H31v27h335v32H0V12h427v145h-205v433h-31V125Z"/><path class="cls-2" d="M540.11,415h150.99l-46.66-103.41-31.4,78.42h-33.8l65.13-159.74,94.22,210.73h-249.44l155.08-353.58,211.92,479.58h-36.42l-175.27-404.79-104.35,252.79h0ZM426.86,591h41.17l37.42-95.85,223.66.85,55.1,126.86,157.74-.85L671.8,13h-54.91l-268.43,609h167.32l29.08-69.52,208.12-1.48-12.53-28.85-214.37-.15-27.5,69h-102.59L634.04,41h20.61l238.93,550h-89.3l-55.49-126h-268.9l-53.02,126Z"/><path class="cls-2" d="M1711.72,158.43h0c54.89,0,105.47,29.61,132.9,78.39,13.69,24.37,20.56,50.49,20.56,79.24,0,55.76-28.27,107.14-75.45,135-23.12,13.95-49.7,20.89-78.01,20.89-58.28,0-108.02-29.6-135.45-78.35-13.73-23.52-20.59-49.67-20.59-77.54,0-56.61,30.89-107.99,78.88-136.75,24.03-13.91,49.74-20.89,77.16-20.89h0ZM1711.72,505.94h0c67.75,0,128.59-37.47,160.32-94.93,15.45-28.75,23.16-60.1,23.16-94.94,0-70.52-33.45-129.77-90.9-163.72-28.26-16.55-59.12-25.27-92.58-25.27-69.42,0-128.58,33.95-162.03,93.19-17.13,29.61-25.71,61.85-25.71,95.79,0,66.18,36.85,130.62,94.29,164.61,28.3,16.55,60,25.27,93.45,25.27h0ZM1711.72,100.96c-38.56,0-73.73,9.57-106.3,28.72-66,38.32-106.31,107.14-106.31,186.38,0,38.32,9.42,74.05,29.14,107.14,37.72,67.03,104.59,108.85,183.47,108.85,38.61,0,73.74-9.57,106.31-29.61,64.31-38.32,105.47-109.74,105.47-186.38,0-39.17-9.46-75.76-28.3-108.85-37.73-66.22-108.9-106.25-183.48-106.25h0ZM1711.72,562.55h0c86.59,0,168.91-47.89,210.91-123.69,20.59-37.43,30.85-78.39,30.85-122.8,0-94.04-42.83-172.44-116.57-214.25-36.88-20.89-78.88-31.34-125.19-31.34-91.73,0-168.9,45.29-212.61,121.94-21.44,38.29-32.58,79.24-32.58,123.65,0,87.96,47.15,168.95,123.47,213.39,38.57,21.78,78.85,33.09,121.72,33.09h0ZM1711.72,40.86c-48.86,0-94.29,12.17-135.45,36.58-83.15,48.75-134.61,138.45-134.61,238.62,0,49.64,12.02,95.79,36.01,137.6,48.02,84.47,135.45,136.75,234.05,136.75,48.87,0,94.3-12.21,136.33-36.58,83.16-48.79,134.61-137.6,134.61-237.77,0-49.64-12.01-95.79-36.04-138.49-47.99-84.48-138.89-136.71-234.9-136.71h0ZM1711.72,621.76c106.31,0,205.76-59.21,260.64-155.04,26.59-47.9,40.29-97.54,40.29-150.66,0-105.36-56.57-209.01-150.9-264.77-47.15-26.97-97.73-40.92-150.03-40.92-105.43,0-206.62,59.21-260.64,153.3-27.42,47.89-41.12,98.42-41.12,152.4,0,107.99,58.29,209.02,152.58,263.88,47.19,27.9,96.89,41.81,149.18,41.81Z"/><path class="cls-2" d="M2548.87,415h150.95l-46.65-103.41-31.4,78.42h-33.77l65.1-159.74,94.22,210.73h-249.44l155.07-353.58,211.92,479.58h-36.42l-175.27-404.79-104.31,252.79h0ZM2446.44,568h37.81l29.89-72.85,223.69.85,55.11,126.86,157.74-.85L2680.52,13h-54.9l-268.4,609h167.18l29.31-70h170.59l-13-30h-176.5l-27.5,69h-102.51l238.05-550h20.39l239.07,550.31-91.6-1.31-54.62-124h-265.89l-43.75,102Z"/><path class="cls-2" d="M1330.2,411.63l13.74-8.72,81.43,124.58-12.01,7.83c-76.29,53.12-132.86,74.9-200.6,74.9-107.15,0-204.04-59.25-258.05-153.29-27.43-47.04-41.16-97.54-41.16-150.66,0-107.99,59.17-209.91,150.03-263.03,45.46-27.01,95.17-40.07,149.18-40.07,75.45,0,147.46,28.75,202.32,78.39l12.01,12.21-42,40.92-9.42-9.57-17.35-13.58,15.12-22.37c.26-.37.22-.81.04-1.22-.18-.37-.55-.74-.95-1.04-43.17-29.05-106.6-53.23-159.77-53.23-96.01,0-184.32,52.23-232.34,135.85-23.99,42.66-36.01,87.96-36.01,136.75,0,97.53,51.46,186.35,134.61,235.13,41.16,24.37,85.75,36.58,133.74,36.58,58.32,0,107.18-17.4,169.74-59.21l-47.99-72.3c-48.86,31.35-81.43,43.55-121.75,43.55-60.88,0-121.72-35.69-155.17-94.05-16.29-28.75-24.87-59.25-24.87-89.71,0-63.59,36.01-127.18,90.02-159.38,26.58-15.69,56.6-23.52,90.02-23.52,37.72,0,72.89,11.32,104.59,33.09,1.72,1.74,3.43,2.6,6.03,3.49l18.84-21.78-6.87-6.12c-40.28-26.97-80.59-40.03-122.59-40.03-55.73,0-108.87,21.74-149.18,63.55-40.29,40.96-61.72,94.08-61.72,150.69s21.43,110.59,61.72,151.51c40.31,40.96,93.45,63.59,149.18,63.59,40.32,0,77.16-11.32,112.33-34.84l17.13,26.12c-40.28,26.16-83.16,39.22-129.46,39.22-64.28,0-125.16-26.12-170.62-72.31-45.43-46.15-71.14-107.99-71.14-173.29s25.71-125.43,71.14-174.22c47.18-46.16,106.34-71.42,170.62-71.42,52.29,0,99.44,15.69,139.76,47.04,9.42,6.09,16.03,11.87,23.15,17.44l9.42,9.57-57.44,68.78-12.86-9.57c-6.02-6.09-11.14-9.57-15.44-12.17-24.87-18.29-54.02-27.9-86.59-27.9-51.42,0-102.04,27.9-128.59,74.9-13.73,23.52-20.59,49.64-20.59,77.54,0,52.23,30.89,102.77,76.32,130.62,23.15,13.95,47.15,20.89,72.86,20.89,36.88,0,63.43-10.43,117.44-46.15Z"/><path class="cls-2" d="M2142,145v466h148V173h-31v405h-86V113h-164v32h133ZM2200,113h205V31h-365v27h335v32h-366V0h426v145h-205v408h-30V113Z"/><path class="cls-2" d="M3206,328h-87v-31h86.11c97.33,0,142.97-32.13,142.97-100.69s-44.8-103.31-121.44-103.31h-76.64v30h67.18c44.8,0,74.08,10.51,88.71,32.39,7.75,9.61,11.19,21.88,11.19,37.61,0,49.91-40.46,77-117.14,77h-81.94v-86h32v54h50.01c57.81,0,86.28-14.89,86.28-45.58,0-26.28-23.29-39.42-69.01-39.42h-99.28V61h108.63c93.45,0,151.77,48.79,151.77,135,0,90.56-55.76,131.52-173.21,131.52l.81.48h0ZM3212,32l.06.97c124.31,0,194.61,56.62,194.61,160.24,0,94.08-55.73,151.55-152.62,162.01l-23.15,2.59,107.18,201.19h35.21l-93.56-176.97c16.38-2.93,30.09-7.87,44.09-13.11,72.39-27.15,113.81-85.05,113.81-176.12,0-35.73-7.71-68-22.3-96.75-34.37-61.91-104.71-95.04-203.42-95.04h-151.91v556h31V32h121ZM3416.14,578h-100.48l-117.48-222.88-79.18.89v222h-86V34h27V1h-58v610h149v-225h29.9l117,223h169.8l-129.95-247.46-28.13,10.82,106.51,205.64Z"/><polygon class="cls-2" points="3541.01 1 3541.01 611 3689.01 611 3689.01 1 3630.99 1 3630.99 32 3658.98 32 3658.8 579 3571.99 579 3571.99 32 3600.01 32 3600.01 579 3630.99 579 3630.99 1 3541.01 1"/><path class="cls-2" d="M3941.55,403h151.65l-48.02-106.55-41.71,106.55h-34.04l75.75-188.06,96,215.06h-248.93l153.33-349.6,220.32,497.6h-34.77l-185.55-427.04-104.03,252.04h0ZM3830.26,578h37.15l38.86-94.88,223.86.88,55.1,126.9,157.78-.9L4072.77,1h-54.84l-268.45,609h167.23l29.26-69.96,208.17-1.04-13.06-30.06-214.16,1.05-27.15,68h-101.84L4035.11,30h20.58l238.02,548h-91.41l-54.62-124h-264.58l-52.84,124Z"/><path class="cls-2" d="M4445,611h-58.02V26.58l469.03,478.73v45.39l-439-450.01v480.31h27.99v30h0ZM4769.13,332.95l-.15-301.95h87.03v548h-14.6l-3.47-3.49-392.95-404.24v438.72h90.2l-.22-300.93-31.16-33.09.18,304.03h-27.99V247.88l356.1,363.12h54.88V1h-149.17l.18,298,31.13,33.95h0ZM4797.01,360.76L4445.84,1h-42.98l425.14,436.15V31h-30.98v329.76Z"/><path class="cls-2" d="M2143,145v465h147V145h-31v433h-87V114h-131l.36-25h-32.36v56h134ZM2200,113h205V31h-365v27h335v32h-366V0h426v145h-205v433h-30V113Z"/><path class="cls-1" d="M2623.9,773.59v-72.08c0-4.23-.65-6.93-1.95-8.13s-3.87-1.79-7.72-1.79h-4.14v-11.21h33.8v13.65c2.71-5.47,6.23-9.49,10.56-12.07,4.33-2.57,9.72-3.86,16.17-3.86,10.73,0,19.07,3.67,25.03,11.01,5.96,7.34,8.94,17.65,8.94,30.92s-2.98,23.49-8.94,30.8c-5.96,7.31-14.3,10.97-25.03,10.97-6.45,0-11.84-1.3-16.17-3.9-4.34-2.6-7.86-6.64-10.56-12.11v27.79c0,4.23.64,6.95,1.91,8.17,1.27,1.22,3.83,1.83,7.68,1.83h7.48v11.13h-51.52v-11.13h4.79c3.85,0,6.42-.61,7.72-1.83,1.3-1.22,1.95-3.94,1.95-8.17ZM2682,719.55c0-9.48-1.57-16.54-4.71-21.17-3.14-4.63-7.91-6.95-14.3-6.95-5.91,0-10.56,2.49-13.98,7.48-3.41,4.99-5.12,11.86-5.12,20.64s1.71,15.49,5.12,20.48c3.41,4.98,8.07,7.48,13.98,7.48,6.39,0,11.16-2.32,14.3-6.95,3.14-4.63,4.71-11.63,4.71-21.01Z"/><path class="cls-1" d="M2729.87,668.44c0-4.23-.64-6.95-1.91-8.17-1.27-1.22-3.86-1.83-7.76-1.83h-4.96v-11.13h34.94v90.53c0,4.23.65,6.95,1.95,8.17,1.3,1.22,3.87,1.83,7.72,1.83h4.96v11.13h-49.57v-11.13h4.96c3.9,0,6.49-.61,7.76-1.83,1.27-1.22,1.91-3.94,1.91-8.17v-69.4Z"/><path class="cls-1" d="M2823.56,749.46c-3.3,4.28-7.15,7.44-11.54,9.47-4.39,2.03-9.54,3.05-15.44,3.05-6.99,0-12.7-2-17.15-6.01-4.44-4.01-6.66-9.15-6.66-15.44s1.9-10.89,5.69-14.63c3.79-3.74,10.29-7.02,19.5-9.83,2.17-.7,5.69-1.65,10.56-2.84,4.88-1.19,8.1-2.3,9.67-3.33,2-1.3,3.43-2.78,4.27-4.43.84-1.65,1.26-3.72,1.26-6.22,0-4.06-1.48-7.19-4.43-9.39-2.95-2.19-7.19-3.29-12.72-3.29-3.58,0-6.62.39-9.14,1.18-2.52.79-4.75,2.02-6.7,3.7h.57c3.25,0,5.81.8,7.68,2.4,1.87,1.6,2.8,3.83,2.8,6.7,0,3.2-1.07,5.77-3.21,7.72-2.14,1.95-4.97,2.93-8.49,2.93-3.9,0-7.1-1.21-9.59-3.62-2.49-2.41-3.74-5.54-3.74-9.39,0-6.18,2.94-11.19,8.82-15.03,5.88-3.85,13.72-5.77,23.53-5.77,5.58,0,10.52.49,14.83,1.46,4.31.97,7.84,2.38,10.6,4.23,3.2,2.11,5.44,4.79,6.75,8.04,1.3,3.25,1.95,8.67,1.95,16.25v34.94c0,1.95.31,3.39.93,4.31.62.92,1.58,1.38,2.88,1.38,2,0,3.36-1.06,4.06-3.17.7-2.11,1.06-7.15,1.06-15.11h10.16v3.49c0,10.19-1.61,17.53-4.83,22.02-3.22,4.5-8.49,6.75-15.81,6.75-4.93,0-8.87-1.02-11.82-3.05-2.95-2.03-5.05-5.19-6.3-9.47ZM2823.24,717.85c-2.28,1.08-5.42,2.46-9.43,4.14-12.35,5.36-18.53,10.86-18.53,16.5,0,3.04.89,5.38,2.68,7.03,1.79,1.65,4.33,2.48,7.64,2.48,5.42,0,9.71-1.83,12.88-5.49,3.17-3.66,4.75-8.71,4.75-15.16v-9.51Z"/><path class="cls-1" d="M2866.79,758.96v-11.13h5.53c3.79,0,6.31-.6,7.56-1.79,1.25-1.19,1.87-3.93,1.87-8.21v-36.32c0-4.28-.62-7-1.87-8.17-1.25-1.16-3.77-1.75-7.56-1.75h-5.53v-11.21h35.11v13.81c4.33-5.42,8.79-9.48,13.37-12.19,4.58-2.71,9.22-4.06,13.94-4.06,9.05,0,15.55,2.22,19.5,6.66,3.95,4.44,5.93,11.86,5.93,22.27v30.96c0,4.28.64,7.02,1.91,8.21,1.27,1.19,3.81,1.79,7.6,1.79h4.88v11.13h-47.29v-11.13h3.33c3.79,0,6.33-.6,7.6-1.79,1.27-1.19,1.91-3.93,1.91-8.21v-30.96c0-5.8-.96-9.94-2.88-12.43-1.92-2.49-5.08-3.74-9.47-3.74-6.29,0-11.24,2.38-14.87,7.15-3.63,4.77-5.44,11.32-5.44,19.67v20.32c0,4.28.64,7.02,1.91,8.21,1.27,1.19,3.81,1.79,7.6,1.79h3.33v11.13h-47.94Z"/><path class="cls-1" d="M2987.79,734.34v-42.42h-13v-10.81c7.42-1.25,12.91-4.29,16.46-9.14,3.55-4.85,5.65-12.36,6.3-22.55h10.65v30.96h21.7v11.54h-22.02v44.78c0,3.85.43,6.43,1.3,7.76.87,1.33,2.44,1.99,4.71,1.99,2.82,0,4.77-1.33,5.85-3.98,1.08-2.65,1.62-8.07,1.62-16.25v-4.39h10.81c.05.87.09,1.82.12,2.84.03,1.03.04,2.47.04,4.31,0,11.54-1.88,19.9-5.65,25.07-3.77,5.17-9.85,7.76-18.24,7.76-7.2,0-12.45-2.19-15.72-6.58-3.28-4.39-4.92-11.35-4.92-20.88Z"/><path class="cls-1" d="M3045.49,728v-17.63h45.1v17.63h-45.1Z"/><path class="cls-1" d="M3127.4,748.81l-6.66,10.97h-10.97v-91.34c0-4.28-.62-7.01-1.87-8.21-1.25-1.19-3.79-1.79-7.64-1.79h-3.49v-11.13h33.16v45.43c3.09-5.31,6.81-9.2,11.17-11.66,4.36-2.46,9.66-3.7,15.89-3.7,10.29,0,18.45,3.75,24.46,11.25,6.01,7.5,9.02,17.76,9.02,30.76s-3.06,23.32-9.18,30.96c-6.12,7.64-14.38,11.46-24.79,11.46-5.96,0-11.32-1.06-16.09-3.17-4.77-2.11-9.1-5.39-13-9.83ZM3167.79,719.88c0-9.43-1.56-16.44-4.67-21.05-3.12-4.6-7.87-6.91-14.26-6.91-5.91,0-10.54,2.47-13.9,7.39-3.36,4.93-5.04,11.78-5.04,20.56s1.69,15.66,5.08,20.64c3.39,4.98,8,7.48,13.86,7.48,6.39,0,11.15-2.33,14.26-6.99,3.11-4.66,4.67-11.7,4.67-21.13Z"/><path class="cls-1" d="M3251.41,749.46c-3.3,4.28-7.15,7.44-11.54,9.47-4.39,2.03-9.54,3.05-15.44,3.05-6.99,0-12.71-2-17.15-6.01-4.44-4.01-6.66-9.15-6.66-15.44s1.9-10.89,5.69-14.63c3.79-3.74,10.29-7.02,19.5-9.83,2.17-.7,5.69-1.65,10.56-2.84,4.88-1.19,8.1-2.3,9.67-3.33,2-1.3,3.43-2.78,4.27-4.43.84-1.65,1.26-3.72,1.26-6.22,0-4.06-1.48-7.19-4.43-9.39-2.95-2.19-7.19-3.29-12.72-3.29-3.58,0-6.62.39-9.14,1.18-2.52.79-4.75,2.02-6.7,3.7h.57c3.25,0,5.81.8,7.68,2.4,1.87,1.6,2.8,3.83,2.8,6.7,0,3.2-1.07,5.77-3.21,7.72-2.14,1.95-4.97,2.93-8.49,2.93-3.9,0-7.1-1.21-9.59-3.62-2.49-2.41-3.74-5.54-3.74-9.39,0-6.18,2.94-11.19,8.82-15.03,5.88-3.85,13.72-5.77,23.53-5.77,5.58,0,10.52.49,14.83,1.46,4.31.97,7.84,2.38,10.6,4.23,3.2,2.11,5.44,4.79,6.75,8.04,1.3,3.25,1.95,8.67,1.95,16.25v34.94c0,1.95.31,3.39.93,4.31.62.92,1.58,1.38,2.88,1.38,2,0,3.36-1.06,4.06-3.17.7-2.11,1.06-7.15,1.06-15.11h10.16v3.49c0,10.19-1.61,17.53-4.84,22.02-3.22,4.5-8.49,6.75-15.81,6.75-4.93,0-8.87-1.02-11.82-3.05-2.95-2.03-5.05-5.19-6.3-9.47ZM3251.08,717.85c-2.28,1.08-5.42,2.46-9.43,4.14-12.35,5.36-18.53,10.86-18.53,16.5,0,3.04.89,5.38,2.68,7.03,1.79,1.65,4.33,2.48,7.64,2.48,5.42,0,9.71-1.83,12.88-5.49,3.17-3.66,4.75-8.71,4.75-15.16v-9.51Z"/><path class="cls-1" d="M3295.94,759.94v-32.1h12.19c1.57,7.15,4.64,12.62,9.22,16.41,4.58,3.79,10.33,5.69,17.27,5.69,4.23,0,7.61-.93,10.16-2.8,2.55-1.87,3.82-4.38,3.82-7.52,0-2.49-1.03-4.51-3.09-6.05-2.06-1.54-5.69-2.97-10.89-4.27l-12.35-2.92c-8.61-2.11-15.01-5.16-19.18-9.14-4.17-3.98-6.26-9.03-6.26-15.16,0-7.37,2.79-13.33,8.37-17.88,5.58-4.55,12.95-6.83,22.1-6.83,4.33,0,8.45.66,12.35,1.99,3.9,1.33,7.69,3.35,11.38,6.05l3.66-6.18h9.51v29.09h-11.3c-1.68-6.01-4.66-10.7-8.94-14.06-4.28-3.36-9.4-5.04-15.36-5.04-3.96,0-7.06.83-9.3,2.48-2.25,1.65-3.37,3.94-3.37,6.87,0,2.11.76,3.86,2.28,5.24,1.52,1.38,3.87,2.45,7.07,3.21l15.12,3.49c9.75,2.33,16.85,5.55,21.29,9.67,4.44,4.12,6.66,9.48,6.66,16.09,0,7.91-2.82,14.14-8.45,18.69-5.64,4.55-13.41,6.83-23.32,6.83-4.93,0-9.48-.69-13.65-2.07-4.17-1.38-8.48-3.64-12.92-6.79l-3.01,6.99h-11.05Z"/><path class="cls-1" d="M3442.45,730.85h13.98c-1.19,9.64-5.05,17.24-11.58,22.79-6.53,5.55-14.88,8.33-25.07,8.33-12.68,0-22.78-3.83-30.31-11.5-7.53-7.66-11.3-17.92-11.3-30.76s3.81-22.9,11.42-30.68c7.61-7.77,17.67-11.66,30.19-11.66s21.29,3.75,27.63,11.25c6.34,7.5,9.51,18.41,9.51,32.71h-56.07c.33,8.88,2.21,15.66,5.65,20.32,3.44,4.66,8.27,6.99,14.5,6.99s11.23-1.37,14.5-4.1c3.28-2.74,5.59-7.3,6.95-13.69ZM3434.9,709.56c-.49-7.26-1.96-12.57-4.43-15.93-2.47-3.36-6.08-5.04-10.85-5.04s-8.84,1.78-11.9,5.32c-3.06,3.55-5.08,8.76-6.05,15.64h33.24Z"/><path class="cls-1" d="M3528.51,668.44c0-4.28-.64-7.01-1.91-8.21-1.27-1.19-3.81-1.79-7.6-1.79h-6.99v-11.13h36.65v90.53c0,4.28.64,7.02,1.91,8.21,1.27,1.19,3.81,1.79,7.6,1.79h4.79v11.13h-34.46v-13.65c-2.71,5.47-6.24,9.51-10.6,12.11-4.36,2.6-9.77,3.9-16.21,3.9-10.62,0-18.89-3.67-24.83-11.01-5.93-7.34-8.9-17.65-8.9-30.92s2.97-23.59,8.9-30.96c5.93-7.37,14.21-11.05,24.83-11.05,6.39,0,11.77,1.31,16.13,3.94,4.36,2.63,7.92,6.7,10.69,12.23v-25.11ZM3490.56,719.88c0,9.43,1.57,16.47,4.71,21.13,3.14,4.66,7.91,6.99,14.3,6.99,5.85,0,10.47-2.49,13.85-7.48,3.39-4.98,5.08-11.86,5.08-20.64s-1.69-15.63-5.08-20.56c-3.39-4.93-8-7.39-13.85-7.39-6.45,0-11.23,2.3-14.34,6.91-3.12,4.61-4.67,11.62-4.67,21.05Z"/><path class="cls-1" d="M3705.26,693.87c4.98-5.63,9.64-9.7,13.98-12.19,4.33-2.49,8.88-3.74,13.65-3.74,3.58,0,6.88.56,9.91,1.67,3.03,1.11,5.5,2.64,7.39,4.59,2,2.17,3.43,4.73,4.27,7.68.84,2.95,1.26,7.95,1.26,14.99v30.96c0,4.28.62,7.02,1.87,8.21,1.25,1.19,3.76,1.79,7.56,1.79h4.71v11.13h-45.43v-11.13h1.79c3.85,0,6.42-.61,7.72-1.83,1.3-1.22,1.95-3.94,1.95-8.17v-30.96c0-6.39-.83-10.69-2.48-12.88-1.65-2.19-4.59-3.29-8.82-3.29-5.09,0-9.45,2.09-13.08,6.26-3.63,4.17-5.45,9.37-5.45,15.6v25.27c0,4.28.64,7.02,1.91,8.21,1.27,1.19,3.81,1.79,7.6,1.79h2.03v11.13h-42.83v-11.13h1.87c3.85,0,6.42-.61,7.72-1.83,1.3-1.22,1.95-3.94,1.95-8.17v-30.96c0-6.39-.84-10.69-2.52-12.88-1.68-2.19-4.63-3.29-8.86-3.29-5.09,0-9.44,2.09-13.04,6.26-3.6,4.17-5.4,9.37-5.4,15.6v25.27c0,4.28.64,7.02,1.91,8.21,1.27,1.19,3.81,1.79,7.6,1.79h1.95v11.13h-46.24v-11.13h5.53c3.79,0,6.31-.6,7.56-1.79,1.25-1.19,1.87-3.93,1.87-8.21v-36.32c0-4.28-.62-7-1.87-8.17-1.25-1.16-3.77-1.75-7.56-1.75h-5.53v-11.21h34.78v13.33c4.28-5.53,8.57-9.53,12.88-12.03,4.31-2.49,9.06-3.74,14.26-3.74s9.85,1.33,13.45,3.98c3.6,2.65,6.32,6.64,8.17,11.95Z"/><path class="cls-1" d="M3841.78,730.85h13.98c-1.19,9.64-5.05,17.24-11.58,22.79-6.53,5.55-14.88,8.33-25.07,8.33-12.68,0-22.78-3.83-30.31-11.5-7.53-7.66-11.3-17.92-11.3-30.76s3.81-22.9,11.42-30.68c7.61-7.77,17.67-11.66,30.19-11.66s21.29,3.75,27.63,11.25c6.34,7.5,9.51,18.41,9.51,32.71h-56.07c.33,8.88,2.21,15.66,5.65,20.32,3.44,4.66,8.27,6.99,14.5,6.99s11.23-1.37,14.5-4.1c3.28-2.74,5.59-7.3,6.95-13.69ZM3834.22,709.56c-.49-7.26-1.96-12.57-4.43-15.93-2.47-3.36-6.08-5.04-10.85-5.04s-8.84,1.78-11.9,5.32c-3.06,3.55-5.08,8.76-6.05,15.64h33.24Z"/><path class="cls-1" d="M3862.42,758.96v-11.13h3.98c2.11,0,4.4-.6,6.87-1.79,2.46-1.19,4.89-2.87,7.27-5.04l23.16-20.64-19.67-20.8c-2.71-2.98-5.2-5.05-7.48-6.22-2.28-1.16-4.77-1.75-7.48-1.75h-3.33v-11.21h48.11v11.21h-3.66c-1.41,0-2.53.2-3.37.61-.84.41-1.26.96-1.26,1.67,0,.76.6,1.79,1.79,3.09.32.38.57.65.73.81l9.43,10.4,10.16-9.26c1.35-1.3,2.3-2.3,2.84-3.01.54-.7.81-1.33.81-1.87,0-.81-.46-1.42-1.38-1.83-.92-.41-2.28-.61-4.06-.61h-3.49v-11.21h42.09v11.21h-3.49c-2.38,0-4.75.6-7.11,1.79-2.36,1.19-5.32,3.41-8.9,6.66l-18.28,16.82,21.29,22.1c2.92,3.09,5.61,5.34,8.04,6.74,2.44,1.41,4.9,2.11,7.39,2.11h3.49v11.13h-49.41v-11.13h3.49c1.95,0,3.49-.22,4.63-.65,1.14-.43,1.71-1,1.71-1.71,0-.54-.2-1.15-.61-1.83-.41-.68-.99-1.39-1.75-2.15l-11.95-12.35-13.81,12.51c-1.19,1.08-1.99,1.9-2.4,2.44-.41.54-.61,1-.61,1.38,0,.65.43,1.21,1.3,1.67.87.46,1.98.69,3.33.69h6.5v11.13h-44.94Z"/><path class="cls-1" d="M3973.1,758.96v-11.13h6.18c3.79,0,6.32-.6,7.6-1.79,1.27-1.19,1.91-3.93,1.91-8.21v-36.32c0-4.28-.64-7-1.91-8.17-1.27-1.16-3.81-1.75-7.6-1.75h-6.18v-11.21h36v57.45c0,4.23.64,6.95,1.91,8.17,1.27,1.22,3.83,1.83,7.68,1.83h5.04v11.13h-50.63ZM3985.12,658.28c0-3.47,1.18-6.39,3.54-8.78,2.36-2.38,5.27-3.58,8.74-3.58s6.49,1.19,8.9,3.58c2.41,2.38,3.62,5.31,3.62,8.78s-1.21,6.42-3.62,8.86c-2.41,2.44-5.38,3.66-8.9,3.66s-6.31-1.22-8.69-3.66c-2.38-2.44-3.58-5.39-3.58-8.86Z"/><path class="cls-1" d="M4094.75,726.38h12.84c-.6,11.76-3.82,20.6-9.67,26.53-5.85,5.93-14.33,8.9-25.44,8.9-12.41,0-22.22-3.79-29.46-11.38-7.23-7.58-10.85-17.82-10.85-30.72s4.02-22.7,12.07-30.55c8.04-7.85,18.51-11.78,31.41-11.78,9.59,0,17.44,2.3,23.57,6.91,6.12,4.61,9.18,10.4,9.18,17.39,0,4.33-1.21,7.79-3.62,10.36-2.41,2.57-5.65,3.86-9.71,3.86-3.63,0-6.53-1.04-8.7-3.13-2.17-2.08-3.25-4.89-3.25-8.41,0-2.6.89-4.83,2.68-6.7,1.79-1.87,4.12-2.97,6.99-3.29-2.49-2.06-5.04-3.56-7.64-4.51-2.6-.95-5.5-1.42-8.7-1.42-6.77,0-12.07,2.74-15.89,8.21-3.82,5.47-5.73,13.11-5.73,22.92,0,9.1,1.73,15.91,5.2,20.44,3.47,4.52,8.67,6.79,15.6,6.79,5.63,0,10.02-1.67,13.16-5,3.14-3.33,5.12-8.46,5.93-15.4Z"/><path class="cls-1" d="M4168.37,749.46c-3.3,4.28-7.15,7.44-11.54,9.47-4.39,2.03-9.54,3.05-15.44,3.05-6.99,0-12.71-2-17.15-6.01-4.44-4.01-6.66-9.15-6.66-15.44s1.9-10.89,5.69-14.63c3.79-3.74,10.29-7.02,19.5-9.83,2.17-.7,5.69-1.65,10.56-2.84,4.88-1.19,8.1-2.3,9.67-3.33,2-1.3,3.43-2.78,4.27-4.43.84-1.65,1.26-3.72,1.26-6.22,0-4.06-1.48-7.19-4.43-9.39-2.95-2.19-7.19-3.29-12.72-3.29-3.58,0-6.62.39-9.14,1.18-2.52.79-4.75,2.02-6.7,3.7h.57c3.25,0,5.81.8,7.68,2.4,1.87,1.6,2.8,3.83,2.8,6.7,0,3.2-1.07,5.77-3.21,7.72-2.14,1.95-4.97,2.93-8.49,2.93-3.9,0-7.1-1.21-9.59-3.62-2.49-2.41-3.74-5.54-3.74-9.39,0-6.18,2.94-11.19,8.82-15.03,5.88-3.85,13.72-5.77,23.53-5.77,5.58,0,10.52.49,14.83,1.46,4.31.97,7.84,2.38,10.6,4.23,3.2,2.11,5.44,4.79,6.75,8.04,1.3,3.25,1.95,8.67,1.95,16.25v34.94c0,1.95.31,3.39.93,4.31.62.92,1.58,1.38,2.88,1.38,2,0,3.36-1.06,4.06-3.17.7-2.11,1.06-7.15,1.06-15.11h10.16v3.49c0,10.19-1.61,17.53-4.83,22.02-3.22,4.5-8.49,6.75-15.81,6.75-4.93,0-8.87-1.02-11.82-3.05-2.95-2.03-5.05-5.19-6.3-9.47ZM4168.04,717.85c-2.28,1.08-5.42,2.46-9.43,4.14-12.35,5.36-18.53,10.86-18.53,16.5,0,3.04.89,5.38,2.68,7.03,1.79,1.65,4.33,2.48,7.64,2.48,5.42,0,9.71-1.83,12.88-5.49,3.17-3.66,4.75-8.71,4.75-15.16v-9.51Z"/><path class="cls-1" d="M4211.6,758.96v-11.13h5.53c3.79,0,6.31-.6,7.56-1.79,1.25-1.19,1.87-3.93,1.87-8.21v-36.32c0-4.28-.62-7-1.87-8.17-1.25-1.16-3.77-1.75-7.56-1.75h-5.53v-11.21h35.11v13.81c4.33-5.42,8.79-9.48,13.37-12.19,4.58-2.71,9.22-4.06,13.94-4.06,9.05,0,15.55,2.22,19.5,6.66,3.95,4.44,5.93,11.86,5.93,22.27v30.96c0,4.28.64,7.02,1.91,8.21,1.27,1.19,3.81,1.79,7.6,1.79h4.88v11.13h-47.29v-11.13h3.33c3.79,0,6.33-.6,7.6-1.79,1.27-1.19,1.91-3.93,1.91-8.21v-30.96c0-5.8-.96-9.94-2.88-12.43-1.92-2.49-5.08-3.74-9.47-3.74-6.29,0-11.24,2.38-14.87,7.15-3.63,4.77-5.44,11.32-5.44,19.67v20.32c0,4.28.64,7.02,1.91,8.21,1.27,1.19,3.81,1.79,7.6,1.79h3.33v11.13h-47.94Z"/><path class="cls-1" d="M4437.59,730.85h13.98c-1.19,9.64-5.05,17.24-11.58,22.79-6.53,5.55-14.88,8.33-25.07,8.33-12.68,0-22.78-3.83-30.31-11.5-7.53-7.66-11.3-17.92-11.3-30.76s3.81-22.9,11.42-30.68c7.61-7.77,17.67-11.66,30.19-11.66s21.29,3.75,27.63,11.25c6.34,7.5,9.51,18.41,9.51,32.71h-56.07c.33,8.88,2.21,15.66,5.65,20.32,3.44,4.66,8.27,6.99,14.5,6.99s11.23-1.37,14.5-4.1c3.28-2.74,5.59-7.3,6.95-13.69ZM4430.03,709.56c-.49-7.26-1.96-12.57-4.43-15.93-2.47-3.36-6.08-5.04-10.85-5.04s-8.84,1.78-11.9,5.32c-3.06,3.55-5.08,8.76-6.05,15.64h33.24Z"/><path class="cls-1" d="M4512.68,749.46c-3.3,4.28-7.15,7.44-11.54,9.47-4.39,2.03-9.54,3.05-15.44,3.05-6.99,0-12.71-2-17.15-6.01-4.44-4.01-6.66-9.15-6.66-15.44s1.9-10.89,5.69-14.63c3.79-3.74,10.29-7.02,19.5-9.83,2.17-.7,5.69-1.65,10.56-2.84,4.88-1.19,8.1-2.3,9.67-3.33,2-1.3,3.43-2.78,4.27-4.43.84-1.65,1.26-3.72,1.26-6.22,0-4.06-1.48-7.19-4.43-9.39-2.95-2.19-7.19-3.29-12.72-3.29-3.58,0-6.62.39-9.14,1.18-2.52.79-4.75,2.02-6.7,3.7h.57c3.25,0,5.81.8,7.68,2.4,1.87,1.6,2.8,3.83,2.8,6.7,0,3.2-1.07,5.77-3.21,7.72-2.14,1.95-4.97,2.93-8.49,2.93-3.9,0-7.1-1.21-9.59-3.62-2.49-2.41-3.74-5.54-3.74-9.39,0-6.18,2.94-11.19,8.82-15.03,5.88-3.85,13.72-5.77,23.53-5.77,5.58,0,10.52.49,14.83,1.46,4.31.97,7.84,2.38,10.6,4.23,3.2,2.11,5.44,4.79,6.75,8.04,1.3,3.25,1.95,8.67,1.95,16.25v34.94c0,1.95.31,3.39.93,4.31.62.92,1.58,1.38,2.88,1.38,2,0,3.36-1.06,4.06-3.17.7-2.11,1.06-7.15,1.06-15.11h10.16v3.49c0,10.19-1.61,17.53-4.83,22.02-3.22,4.5-8.49,6.75-15.81,6.75-4.93,0-8.87-1.02-11.82-3.05-2.95-2.03-5.05-5.19-6.3-9.47ZM4512.35,717.85c-2.28,1.08-5.42,2.46-9.43,4.14-12.35,5.36-18.53,10.86-18.53,16.5,0,3.04.89,5.38,2.68,7.03,1.79,1.65,4.33,2.48,7.64,2.48,5.42,0,9.71-1.83,12.88-5.49,3.17-3.66,4.75-8.71,4.75-15.16v-9.51Z"/><path class="cls-1" d="M4567.94,734.34v-42.42h-13v-10.81c7.42-1.25,12.91-4.29,16.46-9.14,3.55-4.85,5.65-12.36,6.3-22.55h10.65v30.96h21.7v11.54h-22.02v44.78c0,3.85.43,6.43,1.3,7.76.87,1.33,2.44,1.99,4.71,1.99,2.82,0,4.77-1.33,5.85-3.98,1.08-2.65,1.62-8.07,1.62-16.25v-4.39h10.81c.05.87.09,1.82.12,2.84.03,1.03.04,2.47.04,4.31,0,11.54-1.88,19.9-5.65,25.07-3.77,5.17-9.85,7.76-18.24,7.76-7.21,0-12.45-2.19-15.72-6.58-3.28-4.39-4.92-11.35-4.92-20.88Z"/><path class="cls-1" d="M4688.37,730.85h13.98c-1.19,9.64-5.05,17.24-11.58,22.79-6.53,5.55-14.88,8.33-25.07,8.33-12.68,0-22.78-3.83-30.31-11.5-7.53-7.66-11.3-17.92-11.3-30.76s3.81-22.9,11.42-30.68c7.61-7.77,17.67-11.66,30.19-11.66s21.29,3.75,27.63,11.25c6.34,7.5,9.51,18.41,9.51,32.71h-56.07c.33,8.88,2.21,15.66,5.65,20.32,3.44,4.66,8.27,6.99,14.5,6.99s11.23-1.37,14.5-4.1c3.28-2.74,5.59-7.3,6.95-13.69ZM4680.81,709.56c-.49-7.26-1.96-12.57-4.43-15.93-2.47-3.36-6.08-5.04-10.85-5.04s-8.84,1.78-11.9,5.32c-3.06,3.55-5.08,8.76-6.05,15.64h33.24Z"/><path class="cls-1" d="M4747.12,737.84c0,4.28.64,7.02,1.91,8.21,1.27,1.19,3.81,1.79,7.6,1.79h8.29v11.13h-52.9v-11.13h5.53c3.79,0,6.31-.6,7.56-1.79,1.25-1.19,1.87-3.93,1.87-8.21v-36.32c0-4.28-.62-7-1.87-8.17-1.25-1.16-3.77-1.75-7.56-1.75h-5.53v-11.21h35.11v11.86c2.6-4.66,5.63-8.15,9.1-10.48,3.47-2.33,7.37-3.49,11.7-3.49,5.96,0,10.81,1.67,14.55,5,3.74,3.33,5.61,7.65,5.61,12.96,0,4.17-1.25,7.57-3.74,10.2-2.49,2.63-5.74,3.94-9.75,3.94-3.41,0-6.18-.96-8.29-2.88-2.11-1.92-3.17-4.4-3.17-7.44,0-2.76.87-5.11,2.6-7.03,1.73-1.92,4.25-3.34,7.56-4.27-1.25-.54-2.45-.96-3.62-1.26-1.17-.3-2.23-.45-3.21-.45-5.53,0-10.13,2.78-13.81,8.33-3.68,5.55-5.53,12.66-5.53,21.33v21.13Z"/><path class="cls-1" d="M4833.5,758.96l-25.6-57.29c-1.62-3.68-3.4-6.28-5.32-7.8-1.92-1.52-4.32-2.28-7.19-2.28h-4.96v-11.21h48.27v11.21h-5.85c-1.9,0-3.32.33-4.27.97-.95.65-1.42,1.65-1.42,3.01.05.65.15,1.27.28,1.87.13.6.34,1.19.61,1.79l15.44,36.24,13.65-34.78c.43-1.14.73-2.07.89-2.8.16-.73.24-1.39.24-1.99,0-1.62-.53-2.75-1.59-3.37-1.06-.62-2.97-.93-5.73-.93h-4.47v-11.21h40.14v11.21h-3.66c-2.66,0-4.97.95-6.95,2.84-1.98,1.9-3.78,4.88-5.4,8.94l-18.45,46.24c-7.37,18.37-13.75,30.47-19.14,36.32-5.39,5.85-11.96,8.78-19.71,8.78-6.72,0-12.27-1.99-16.66-5.97-4.39-3.98-6.58-8.98-6.58-14.99,0-4.33,1.26-7.88,3.78-10.65,2.52-2.76,5.81-4.14,9.87-4.14,3.36,0,6.11,1.03,8.25,3.09,2.14,2.06,3.21,4.69,3.21,7.88s-.98,5.59-2.93,7.35c-1.95,1.76-4.69,2.64-8.21,2.64h-.97c1.08,1.35,2.3,2.36,3.66,3.01,1.35.65,2.9.97,4.63.97,4.44,0,8.37-1.91,11.78-5.73,3.41-3.82,6.85-10.23,10.32-19.22Z"/></svg>